<svg xmlns="http://www.w3.org/2000/svg" width="329.758" height="432.574" viewBox="0 0 329.758 432.574">
    <defs>
        <clipPath id="clip-path">
            <path id="Path_186" data-name="Path 186" d="M957.989 1147H754.966v432.574h203.023" transform="translate(-754.966 -1147)" style="clip-rule:evenodd;fill:none"/>
        </clipPath>
        <clipPath id="clip-path-2">
            <path id="Path_185" data-name="Path 185" d="M754.966 1579.574h203.023V1147H754.966v432.574z" transform="translate(-754.966 -1147)" style="clip-rule:evenodd;fill:none"/>
        </clipPath>
        <style>
            
        </style>
    </defs>
    <g id="Group_146036" data-name="Group 146036" transform="translate(-15.121 -97.713)">
        <g id="varzeshgah">
            <path id="Path_256" data-name="Path 256" d="M882.517 450.829c-9.167-2.126-18.979-4.2-31.067-6.871 2.292 9.89-.674 20.771 4.8 24 6.679 3.938 16.939 5.874 26.266 7.686z" transform="translate(-794.118 -49.225)" style="fill:#07242d"/>
            <path id="Path_293" data-name="Path 293" d="M882.517 450.829c-9.167-2.126-18.979-4.2-31.067-6.871 2.292 9.89-.674 20.771 4.8 24 6.679 3.938 16.939 5.874 26.266 7.686z" transform="translate(-794.118 -79.801)" style="fill:#07242d"/>
            <path id="Path_294" data-name="Path 294" d="M882.517 448.09c-9.167-1.279-20.112-6.959-32.2-8.566 2.292 5.948-2.274 15.258 3.2 17.2 6.679 2.368 19.672 5.2 29 6.289z" transform="translate(-794.118 -100.425)" style="fill:#07242d"/>
            <g id="Group_146033" data-name="Group 146033" transform="translate(780.827 -302.216)">
                <g id="Group_146031" data-name="Group 146031" transform="translate(-741.853 617.481)">
                    <path id="Path_277" data-name="Path 277" d="M-721.4 741.552V639.8" transform="translate(736.269 -637.55)" style="stroke-width:7px;stroke:#25c9c7;fill:none"/>
                    <path id="Path_276" data-name="Path 276" d="M-676.738 753.258v-95.271" transform="translate(730.443 -635.922)" style="stroke-width:7px;stroke:#25c9c7;fill:none"/>
                </g>
                <g id="Group_146032" data-name="Group 146032" transform="translate(-509.138 621.82)">
                    <path id="Path_277-2" data-name="Path 277" d="M-427.213 644.652v94.533" transform="translate(460.177 -639.522)" style="stroke-width:7px;stroke:#25c9c7;fill:none"/>
                    <path id="Path_276-2" data-name="Path 276" d="M-470.872 662.657V752.8" transform="translate(470.872 -640.871)" style="stroke-width:7px;stroke:#25c9c7;fill:none"/>
                </g>
                <g id="Group_146027" data-name="Group 146027" transform="translate(-764.206 562.616)">
                    <path id="Path_277-3" data-name="Path 277" d="m-514.531 610.937 19.236-14.437 15.029-11.279 13.5-10.123c-29.116-7.748-68.037-12.481-110.786-12.481-2.754 0-5.507.016-8.241.064v45.129c2.716-.033 5.469-.049 8.241-.049 24.628.002 46.917 1.223 63.021 3.176z" transform="translate(740.931 -562.616)" style="stroke-miterlimit:10;fill:#25c9c7;stroke:#fcfcfc;stroke-width:3px"/>
                    <path id="Path_278" data-name="Path 278" d="m-677.769 596.849 19.2 14.4a487.906 487.906 0 0 1 51.443-3.336V562.8c-38.228.926-72.718 5.664-98.888 12.859l13.37 10.041z" transform="translate(756.615 -562.64)" style="stroke-miterlimit:10;fill:#25c9c7;stroke:#fcfcfc;stroke-width:3px"/>
                    <path id="Path_279" data-name="Path 279" d="m-448.7 578.992-13.1 9.83-14.5 10.873-19.177 14.388c11.673 1.822 18.63 4.117 18.63 6.624 0 1.312-1.938 2.568-5.458 3.732v27.894c47.856-8.215 79.924-23.278 79.924-40.5-.012-12.774-17.662-24.362-46.319-32.841z" transform="translate(729.151 -564.752)" style="stroke-miterlimit:10;fill:#25c9c7;stroke:#fcfcfc;stroke-width:3px"/>
                    <path id="Path_280" data-name="Path 280" d="M-681.216 625.414c-.056-.016-.116-.028-.171-.045-.264-.064-.528-.13-.792-.211a9.127 9.127 0 0 1-.755-.212 29.22 29.22 0 0 1-3.187-1.09 4.857 4.857 0 0 1-.528-.228c-.17-.064-.321-.146-.49-.228a3.442 3.442 0 0 1-.434-.229 4.074 4.074 0 0 1-2.075-1.888 1.241 1.241 0 0 1-.075-.244 1.033 1.033 0 0 1-.019-.243c0-2.346 6.071-4.492 16.387-6.266l-19.159-14.372-14.35-10.775-12.953-9.717c-27.533 8.431-44.39 19.776-44.39 32.259 0 17.585 33.442 32.92 82.99 41.011z" transform="translate(764.206 -564.84)" style="stroke-miterlimit:10;fill:#25c9c7;stroke:#fcfcfc;stroke-width:3px"/>
                    <path id="Path_281" data-name="Path 281" d="m-514.021 613.057 19.394-14.437 15.154-11.279c-26.026-5.273-60.407-8.48-98.092-8.48-2.795 0-5.552.016-8.309.065v31a711.45 711.45 0 0 1 8.309-.049c24.835.006 47.308 1.223 63.544 3.18z" transform="translate(740.942 -564.735)" style="stroke-miterlimit:10;fill:#25c9c7;stroke:#fcfcfc;stroke-width:3px"/>
                    <path id="Path_282" data-name="Path 282" d="M-657.236 613.374a495.949 495.949 0 0 1 51.869-3.336v-30.99c-33.18.7-63.164 3.907-86.228 8.774l15 11.148z" transform="translate(754.734 -564.76)" style="stroke-miterlimit:10;fill:#25c9c7;stroke:#fcfcfc;stroke-width:3px"/>
                    <path id="Path_283" data-name="Path 283" d="m-678.8 627.043-.023-.005c-.283-.065-.551-.13-.817-.212-.266-.065-.533-.13-.8-.211a9.5 9.5 0 0 1-.761-.212 29.573 29.573 0 0 1-3.213-1.09 4.961 4.961 0 0 1-.533-.228c-.171-.065-.323-.147-.494-.228a3.426 3.426 0 0 1-.437-.229 4.1 4.1 0 0 1-2.092-1.888 1.185 1.185 0 0 1-.076-.244 1.037 1.037 0 0 1-.019-.243c0-2.346 6.122-4.493 16.523-6.266l-19.313-14.372-14.469-10.773c-25.021 5.987-40.366 14.058-40.366 22.966 0 11.715 26.62 22.017 66.89 27.973z" transform="translate(761.791 -566.298)" style="stroke-miterlimit:10;fill:#25c9c7;stroke:#fcfcfc;stroke-width:3px"/>
                    <path id="Path_284" data-name="Path 284" d="m-460.861 590.3-14.622 10.87-19.337 14.387c11.77 1.823 18.785 4.118 18.785 6.625 0 1.4-2.2 2.73-6.194 3.955v15.108c38.549-6.019 63.825-16.093 63.825-27.508.004-9.15-16.196-17.417-42.457-23.437z" transform="translate(729.064 -566.227)" style="stroke-miterlimit:10;fill:#25c9c7;stroke:#fcfcfc;stroke-width:3px"/>
                    <path id="Path_285" data-name="Path 285" d="M-675.636 629.834c-8.669-1.71-13.733-3.759-13.731-5.965 0-2.344 5.648-4.492 15.24-6.266l-17.821-14.372c-18.327 3.321-29.48 7.749-29.48 12.6 0 6.164 17.984 11.628 45.793 15.065z" transform="translate(758.626 -567.914)" style="stroke-miterlimit:10;fill:#25c9c7;stroke:#fcfcfc;stroke-width:3px"/>
                    <path id="Path_272" data-name="Path 272" d="M-671.785 601.207c17.589-2.735 40.388-4.541 65.693-5.013v16.08a422.638 422.638 0 0 0-47.841 3.336z" transform="translate(752.149 -566.996)" style="stroke-miterlimit:10;fill:#25c9c7;stroke:#fcfcfc;stroke-width:3px"/>
                    <path id="Path_273" data-name="Path 273" d="M-514.735 615.3c-14.977-1.953-35.705-3.174-58.609-3.174-2.578 0-5.138.016-7.663.05V596.1c2.525-.016 5.085-.033 7.663-.033 29.392 0 56.207 1.807 76.5 4.8z" transform="translate(740.307 -566.979)" style="stroke-miterlimit:10;fill:#25c9c7;stroke:#fcfcfc;stroke-width:3px"/>
                    <path id="Path_286" data-name="Path 286" d="m-470.16 602.8-17.835 14.388c10.855 1.823 17.327 4.118 17.327 6.625 0 1.93-3.886 3.742-10.67 5.313v1.312c26.06-3.447 42.728-8.728 42.728-14.665-.001-5.03-11.995-9.604-31.55-12.973z" transform="translate(728.173 -567.858)" style="stroke-miterlimit:10;fill:#25c9c7;stroke:#fcfcfc;stroke-width:3px"/>
                    <g id="Group_146026" data-name="Group 146026" transform="translate(18.476 85.889)">
                        <path id="Path_287" data-name="Path 287" d="M-473.819 694.109c18.1-4.363 37.233-8.711 51.146-21.754a26.232 26.232 0 0 0 5.122-10.965" transform="translate(707.848 -671.39)" style="stroke-linecap:round;stroke-width:8px;stroke-miterlimit:10;stroke:#25c9c7;fill:none"/>
                        <path id="Path_288" data-name="Path 288" d="M-742.214 661.39c0 6.421 5.031 11.489 9.867 15.032 7.934 5.814 17.449 9.467 26.745 12.449 7.028 2.255 14.193 4.075 21.407 5.619" transform="translate(742.861 -671.39)" style="stroke-linecap:round;stroke-width:8px;stroke-miterlimit:10;stroke:#25c9c7;fill:none"/>
                        <path id="Path_289" data-name="Path 289" d="M-742.214 696.917c0 6.562 4.888 11.835 9.795 15.578 7.888 6.016 17.455 9.812 26.81 12.868a207.789 207.789 0 0 0 21.2 5.616" transform="translate(742.861 -676.025)" style="stroke-linecap:round;stroke-width:8px;stroke-miterlimit:10;stroke:#25c9c7;fill:none"/>
                        <path id="Path_290" data-name="Path 290" d="M-473.525 730.589c14.369-3.166 29.152-7.514 43.064-15.34 6.087-4.348 12.174-10.435 12.949-18.333" transform="translate(707.81 -676.025)" style="stroke-linecap:round;stroke-width:8px;stroke-miterlimit:10;stroke:#25c9c7;fill:none"/>
                        <path id="Path_291" data-name="Path 291" d="M-742.958 735.661c.833 10.729 11.268 16.816 19.963 22.033 12.174 6.087 25.217 9.565 38.536 12.189" transform="translate(743.958 -683.079)" style="stroke-linecap:round;stroke-width:8px;stroke-miterlimit:10;stroke:#25c9c7;fill:none"/>
                        <path id="Path_292" data-name="Path 292" d="M-473.553 769.2c16.133-3.678 32.654-8.026 47.436-19.33 4.348-3.478 7.826-7.826 7.94-14.21" transform="translate(707.813 -683.078)" style="stroke-linecap:round;stroke-width:8px;stroke-miterlimit:10;stroke:#25c9c7;fill:none"/>
                    </g>
                </g>
            </g>
            <path id="Path_255" data-name="Path 255" d="M975.241 444.245c-10.252 1.462-18.582 2.626-26.56 3.778l-2.046 23.39c6.487-1.045 15-2.921 21.413-4.055 2.987-.528 6.643-2.778 6.871-4.356.82-5.77.322-11.591.322-18.757z" transform="rotate(-5.13 75.733 8149.31)" style="fill:#07242d"/>
            <path id="Path_295" data-name="Path 295" d="M976.305 444.245c-10.633 1.462-19.274 2.626-27.548 3.778l-2.122 23.39c6.728-1.045 15.559-2.921 22.21-4.055 3.1-.528 6.891-2.778 7.126-4.356.852-5.77.334-11.591.334-18.757z" transform="rotate(-5.13 -285.228 8144.967)" style="fill:#07242d"/>
            <path id="Path_296" data-name="Path 296" d="M974.087 444.245c-9.838 1.114-18.007 3.993-25.662 4.871l-1.789 15.825c6.225-.8 14.4-2.225 20.549-3.089 2.867-.4 5.379-2.2 5.6-3.405a76.794 76.794 0 0 0 1.302-14.202z" transform="rotate(-5.13 -571.887 8113.051)" style="fill:#07242d"/>
        </g>
        <g id="person" transform="translate(-676.477 -1049.287)">
            <g id="Group_146007" data-name="Group 146007" transform="translate(754.966 1147)">
                <path id="Path_117" data-name="Path 117" d="M975.66 1147.009a15.024 15.024 0 0 0-8.627 2.931 25.084 25.084 0 0 0-9.975-2.364c-7.543 0-10.5 4.934-10.5 4.934-19.024.193-13.616 16.564-13.616 16.564-11.055 7.848-2.8 14.825-2.8 14.825-4.538 14.145 5.941 17.483 5.941 17.483-.648 9.968 6.177 11.024 9.1 11.024a9.506 9.506 0 0 0 1.285-.076c1.706 5.691 5.837 6.711 8.577 6.711a10.368 10.368 0 0 0 2.625-.318l19.99-3.824a29.993 29.993 0 0 0 3.959.284c13.888 0 11.061-12.2 11.061-12.2 10.237-5.425 3.962-13.128 3.962-13.128 10.911-9.251-.824-19.422-.824-19.422 4.4-17.536-10.09-18.894-10.09-18.894-3.518-3.454-7.042-4.529-10.064-4.529z" transform="translate(-866.615 -1147.006)" style="fill:#0f0f0f;fill-rule:evenodd"/>
                <path id="Path_118" data-name="Path 118" d="M933.79 1628.418c-6.105 34.152 15.844 105.79 15.844 105.79-10.562 13.352-10.126 98.338-10.126 98.338l12.693-.484c7.024-23.023 19.572-73.234 23.5-88.854a84.292 84.292 0 0 0 1.743-9.773c4.845-42.617 9.01-99.019 9.01-99.019l-52.661-6z" transform="translate(-870.205 -1459.11)" style="fill:#ffab6d;fill-rule:evenodd"/>
                <path id="Path_119" data-name="Path 119" d="M959.306 2000.352c-1.282 0-2.564.029-3.84.078-3.692 29.7-3.5 73.246-3.5 73.246l12.736-.485c5.105-16.663 13.079-47.472 18.57-69.223a76.21 76.21 0 0 0-17.113-3.344 84.57 84.57 0 0 0-6.854-.271z" transform="translate(-882.684 -1700.24)" style="fill:#07242d;fill-rule:evenodd"/>
                <path id="Path_120" data-name="Path 120" d="M996.566 1628.942c-1.354 34.705 27.288 104.895 27.288 104.895-9.869 19.121-5.47 93.279-5.47 93.279l15.533 1.161c3.675-23.039 11.171-72.8 14.174-89.5a104.714 104.714 0 0 0 1.547-13.457c2.128-41.048-9.87-94.728-9.87-94.728l-43.2-1.646z" transform="translate(-911.568 -1459.45)" style="fill:#ffab6d;fill-rule:evenodd"/>
                <path id="Path_121" data-name="Path 121" d="M1060.558 2008.21c-1.319 0-2.586.026-3.768.064-2.087 28.39.1 64.726.1 64.726l15.6 1.162c2.377-14.873 6.36-40.791 9.664-61.867-5.82-3.353-14.476-4.085-21.589-4.085z" transform="translate(-950.057 -1705.334)" style="fill:#07242d;fill-rule:evenodd"/>
                <g id="Group_145956" data-name="Group 145956" transform="translate(58.1 362.234)">
                    <path id="Path_122" data-name="Path 122" d="m925.533 2184.76-5.362 16.727 54.057 6.219a20.737 20.737 0 0 0-11.44-14.559l-11.383-5.416-25.872-2.971z" transform="translate(-920.171 -2182.028)" style="fill:#07242d;fill-rule:evenodd"/>
                    <path id="Path_123" data-name="Path 123" d="M937.13 2202.152a3.1 3.1 0 0 0-1.245 2.129 3.024 3.024 0 0 0 2.669 3.38 3.066 3.066 0 0 0 2.143-.59 3.126 3.126 0 0 0 1.258-2.149 3.017 3.017 0 0 0-2.638-3.347 3.065 3.065 0 0 0-2.188.577z" transform="translate(-930.344 -2192.916)" style="fill:#f9d93d;fill-rule:evenodd"/>
                    <path id="Path_124" data-name="Path 124" d="m983.094 2176.993.313 7.37 8.987 1.1.423-.979 1.517-6.1-11.24-1.393z" transform="translate(-960.965 -2176.993)" style="fill:#07242d;fill-rule:evenodd"/>
                    <path id="Path_125" data-name="Path 125" d="m939.161 2232.2-.218 2.4 3.552.409.3-2.943-3.636.136z" transform="translate(-932.341 -2212.694)" style="fill:#07242d;fill-rule:evenodd"/>
                    <path id="Path_126" data-name="Path 126" d="m959.719 2234.482-.256 2.352 3.517.28.329-2.818-3.591.187z" transform="translate(-945.645 -2214.143)" style="fill:#07242d;fill-rule:evenodd"/>
                    <path id="Path_127" data-name="Path 127" d="m1000.178 2239.972-.223 2.4 3.589.38.267-2.912-3.633.136z" transform="translate(-971.897 -2217.735)" style="fill:#07242d;fill-rule:evenodd"/>
                </g>
                <g id="Group_145957" data-name="Group 145957" transform="translate(101.09 353.999)">
                    <path id="Path_128" data-name="Path 128" d="m1047.334 2161.7-4.923 16.9 54.349 4.879a20.962 20.962 0 0 0-11.9-14.347l-11.542-5.115-25.989-2.32z" transform="translate(-1042.411 -2158.846)" style="fill:#07242d;fill-rule:evenodd"/>
                    <path id="Path_129" data-name="Path 129" d="M1059.607 2178.886a3.04 3.04 0 1 0 4.12 3.1 3.028 3.028 0 0 0-2.784-3.3 3.124 3.124 0 0 0-1.336.194z" transform="translate(-1052.269 -2169.854)" style="fill:#f9d93d;fill-rule:evenodd"/>
                    <path id="Path_130" data-name="Path 130" d="m1104.238 2153.577.5 7.25 8.89.8.443-1 1.307-6.026-11.141-1.027z" transform="translate(-1082.494 -2153.577)" style="fill:#07242d;fill-rule:evenodd"/>
                    <path id="Path_131" data-name="Path 131" d="m1061.973 2209.479-.131 2.354 3.506.3.232-2.9-3.607.248z" transform="translate(-1055.009 -2189.658)" style="fill:#07242d;fill-rule:evenodd"/>
                    <path id="Path_132" data-name="Path 132" d="m1082.1 2210.786-.132 2.35 3.507.3.231-2.9-3.606.25z" transform="translate(-1068.055 -2190.505)" style="fill:#07242d;fill-rule:evenodd"/>
                    <path id="Path_133" data-name="Path 133" d="m1123.14 2215.362-.17 2.4 3.5.272.237-2.889-3.564.22z" transform="translate(-1094.638 -2193.49)" style="fill:#07242d;fill-rule:evenodd"/>
                </g>
                <path id="Path_134" data-name="Path 134" d="m1032.584 1266.438-6.264 1.8 1.34 1.509 4.108-1.267.816-2.046z" transform="translate(-930.889 -1224.433)" style="fill:#a0624e;fill-rule:evenodd"/>
                <path id="Path_135" data-name="Path 135" d="m1072.943 1264.875.641 1.9 4.417.489 1.57-1.563-6.629-.829z" transform="translate(-961.115 -1223.42)" style="fill:#a0624e;fill-rule:evenodd"/>
                <path id="Line_51" data-name="Line 51" transform="translate(101.791 58.496)" style="stroke:#d8d8d8;stroke-miterlimit:1;stroke-width:.033px;fill:none" d="M8.469.55 0 0"/>
                <path id="Path_136" data-name="Path 136" d="M981.689 1649.373c-36.995 0-53.084 11.969-53.084 11.969-4.589 17.366.632 27.525 2.662 40.051a81.007 81.007 0 0 1 .626 22.5 124.527 124.527 0 0 0 19.867 4.063 60.06 60.06 0 0 0 7.665.453 101.9 101.9 0 0 0 18.287-1.81l.726-4.5c26.2-1.112 31.61-9.19 31.61-9.19s-2.079-5.322-4.4-22.832c-2.27-17.458-9.808-40.147-9.808-40.147a187.066 187.066 0 0 0-14.151-.554z" transform="translate(-866.349 -1472.695)" style="fill:#006837;fill-rule:evenodd"/>
                <path id="Path_137" data-name="Path 137" d="M.682 42.213A16.238 16.238 0 0 0 12.2 62.532c16.577 4.3 31.661 4.352 39.629 4.883a15.447 15.447 0 0 0 9.563-2.577c20.621-14.113 41.795-34.23 41.795-34.23 7.9-3.583 7.642-6.091 14.363-14.632a16.988 16.988 0 0 0 2.969-4.826c.81-2.684-2.458-1.548-2.458-1.548a11.2 11.2 0 0 0 1.439-2.759c.874-2.894-2.9-1.426-2.907-1.427q.242-.624.394-1.125c1.487-4.924-3.116-1.565-3.116-1.565a2.94 2.94 0 0 0 .432-.86c.477-1.579-.784-2.932-3.607-.657-3.02 2.479-7.545 9.105-7.545 9.105.022-3.585-1.678-3.643-4.619.073a19.631 19.631 0 0 0-2.981 6.272 33.438 33.438 0 0 0-.978 4.166C69.729 34.22 55.45 46.4 55.45 46.4c-15.385-7.58-27.134-13.15-34.979-15.268a16.163 16.163 0 0 0-19.262 9.616 1.91 1.91 0 0 1-.185.451c-.126.337-.239.674-.342 1.014z" transform="rotate(51 -15.018 169.082)" style="fill:#ffab6d;fill-rule:evenodd"/>
                <g id="Group_146004" data-name="Group 146004">
                    <g id="Group_146003" data-name="Group 146003">
                        <path id="Rectangle_153859" data-name="Rectangle 153859" transform="rotate(2.122 -5219.86 1389.768)" style="fill:#d900df" d="M0 0h47.64v47.64H0z"/>
                        <path id="Rectangle_153860" data-name="Rectangle 153860" transform="rotate(21.389 -488.46 238.92)" style="fill:#f9d93d" d="M0 0h47.64v47.64H0z"/>
                        <g id="Group_146002" data-name="Group 146002">
                            <g id="Group_146001" data-name="Group 146001" style="clip-path:url(#clip-path)">
                                <g id="Group_146000" data-name="Group 146000">
                                    <g id="Group_145958" data-name="Group 145958" transform="translate(6.041 160.697)">
                                        <path id="Path_138" data-name="Path 138" d="M774.228 1628.913s22.159-.74 57.782 18.059l24.294 12.806 2.931-5.527-20.809-10.962-3.51-1.831c-35.622-18.8-47.529-37.476-47.53-37.478l.607.968-13.766 23.965z" transform="translate(-773.494 -1603.964)" style="fill:#c1272d;fill-rule:evenodd"/>
                                        <path id="Path_139" data-name="Path 139" d="M772.583 1627.862a1.688 1.688 0 0 0 .681.695c2.187 1.156 6.8-3.369 10.331-10.129 3.084-5.9 4.3-11.517 3.124-13.627a1.7 1.7 0 0 0-.667-.687c-2.187-1.156-6.8 3.371-10.331 10.128-3.077 5.892-4.317 11.509-3.137 13.621z" transform="translate(-772.142 -1603.933)" style="fill:#ffab6d;fill-rule:evenodd"/>
                                        <path id="Path_140" data-name="Path 140" d="M1004.274 1751.383a1.308 1.308 0 0 0 .544.54c.943.484 2.32-.313 3.119-1.806a3.322 3.322 0 0 0 .283-3.018 1.308 1.308 0 0 0-.542-.536c-.944-.485-2.32.314-3.12 1.8a3.275 3.275 0 0 0-.285 3.015z" transform="translate(-922.474 -1696.309)" style="fill:#ffab6d;fill-rule:evenodd"/>
                                        <path id="Path_141" data-name="Path 141" d="M980.715 1739.135a8.581 8.581 0 0 0 .91.682 7.683 7.683 0 0 0 3.763-5.642 5.784 5.784 0 0 1-.942-.069 6.858 6.858 0 0 1-3.73 5.029z" transform="translate(-907.363 -1688.326)" style="fill:#f15a24;fill-rule:evenodd"/>
                                        <path id="Path_142" data-name="Path 142" d="M975.152 1736.462a9.852 9.852 0 0 0 .865.627 7.853 7.853 0 0 0 3.874-5.468 5.725 5.725 0 0 1-.916-.043 7.084 7.084 0 0 1-3.824 4.884z" transform="translate(-903.756 -1686.687)" style="fill:#fff;fill-rule:evenodd"/>
                                        <path id="Path_143" data-name="Path 143" d="M853.336 1674.169c.155.173.319.342.477.5a12.3 12.3 0 0 0 7-8.34c-.211-.027-.425-.061-.628-.093a11.763 11.763 0 0 1-6.85 7.928z" transform="translate(-824.781 -1644.328)" style="fill:#f15a24;fill-rule:evenodd"/>
                                        <path id="Path_144" data-name="Path 144" d="M843.855 1668.73c.2.209.4.417.626.615a15.53 15.53 0 0 0 8.7-10.572 9.1 9.1 0 0 1-.8-.089 14.755 14.755 0 0 1-8.526 10.046z" transform="translate(-818.635 -1639.429)" style="fill:#fff;fill-rule:evenodd"/>
                                    </g>
                                    <g id="Group_145999" data-name="Group 145999">
                                        <g id="Group_145998" data-name="Group 145998">
                                            <g id="Group_145997" data-name="Group 145997" style="clip-path:url(#clip-path-2)">
                                                <path id="Path_145" data-name="Path 145" d="M1061.951 1503.227a61.368 61.368 0 0 1-20.125 3.479 50.592 50.592 0 0 1-13.4-1.715c.532 3.236 1.015 5.343 1.015 5.343a62.222 62.222 0 0 0 15.382 1.914 45.958 45.958 0 0 0 16.012-2.646s.584-2.505 1.119-6.376z" transform="translate(-932.253 -1377.947)" style="fill:#f9d93d;fill-rule:evenodd"/>
                                                <g id="Group_145996" data-name="Group 145996">
                                                    <g id="Group_145995" data-name="Group 145995" style="clip-path:url(#clip-path-2)">
                                                        <path id="Path_146" data-name="Path 146" d="M1044.4 1394.781a23.826 23.826 0 0 0-3.7.308c-17.962 2.849-16.023 28.438-14.281 39.637a51.265 51.265 0 0 0 13.394 1.688 62.171 62.171 0 0 0 20.114-3.425c1.684-12.234 3.158-38.208-15.524-38.208z" transform="translate(-930.252 -1307.64)" style="fill:#006837;fill-rule:evenodd"/>
                                                        <g id="Group_145994" data-name="Group 145994">
                                                            <g id="Group_145993" data-name="Group 145993" style="clip-path:url(#clip-path-2)">
                                                                <path id="Path_147" data-name="Path 147" d="m1018.627 1329.823-18.407.87s2.422 9.469-5.331 11.639l21.755 4.445a9.148 9.148 0 0 0 1.784.176 9.257 9.257 0 0 0 6.3-2.493 14.982 14.982 0 0 1-2.229-5.99 46.15 46.15 0 0 1-4.11.193c-13.19 0-14.2-6.765-14.2-6.765l14.436-2.075z" transform="translate(-910.511 -1265.526)" style="fill:#a67c52;fill-rule:evenodd"/>
                                                                <g id="Group_145992" data-name="Group 145992">
                                                                    <g id="Group_145991" data-name="Group 145991" style="clip-path:url(#clip-path-2)">
                                                                        <path id="Path_148" data-name="Path 148" d="m1035.609 1329.823-14.519 2.075s1.017 6.764 14.283 6.764c1.265 0 2.64-.06 4.134-.193a33.937 33.937 0 0 1-.436-8.163l-3.463-.484z" transform="translate(-927.498 -1265.526)" style="opacity:.188;fill-rule:evenodd"/>
                                                                        <g id="Group_145990" data-name="Group 145990">
                                                                            <g id="Group_145989" data-name="Group 145989" style="clip-path:url(#clip-path-2)">
                                                                                <path id="Path_149" data-name="Path 149" d="m987.79 1365.454-27.249.1s-23.18 10.69-17.615 29.838c10.407 35.588-.97 66.967-.97 66.967a66.655 66.655 0 0 0 10.595.739c9.394 0 23.668-1.564 37.124-9.25 0 0 10.939-28.915 13.119-52.365a41.4 41.4 0 0 0-15-36.024z" transform="translate(-876.194 -1288.627)" style="fill:#ffab6d;fill-rule:evenodd"/>
                                                                                <g id="Group_145988" data-name="Group 145988">
                                                                                    <g id="Group_145987" data-name="Group 145987" style="clip-path:url(#clip-path-2)">
                                                                                        <path id="Path_150" data-name="Path 150" d="M943.218 1369.636c-9.237 8.373-14.9 13.451-16.641 33.193a108.732 108.732 0 0 0-.291 5.613c-.046 4.792 0 10.018.147 15.483 10.3 21.632-3.147 47.76-2.468 57.678a111.612 111.612 0 0 0 21.709 2.07 121.739 121.739 0 0 0 18.3-1.391c23.072-3.531 33.426-9.724 36.714-14.034-8.656-7.206-11.318-29.9-10.836-43.69a21.452 21.452 0 0 1 2.517-9.773c9.578-17.955 2.566-28.406-8.27-41.375l-1.163 4.117a15.261 15.261 0 0 1-1.16 2.42c-19.352-.872-35.655-8.809-38.559-10.31z" transform="translate(-864.514 -1291.338)" style="fill:#006837;fill-rule:evenodd"/>
                                                                                        <g id="Group_145986" data-name="Group 145986">
                                                                                            <g id="Group_145985" data-name="Group 145985" style="clip-path:url(#clip-path-2)">
                                                                                                <path id="Path_151" data-name="Path 151" d="M982.386 1362.834a167.818 167.818 0 0 0-3.728 2.374c2.9 1.5 19.214 9.462 38.572 10.336a19.121 19.121 0 0 0 2.324-6.553 21.082 21.082 0 0 0-3.052-3.007 17.708 17.708 0 0 1-1.014 5.432c-16.938-.335-33.1-8.581-33.1-8.581z" transform="translate(-899.989 -1286.928)" style="fill:#f9d93d;fill-rule:evenodd"/>
                                                                                                <g id="Group_145984" data-name="Group 145984">
                                                                                                    <g id="Group_145983" data-name="Group 145983" style="clip-path:url(#clip-path-2)">
                                                                                                        <path id="Path_152" data-name="Path 152" d="M909.533 1392.161a16.413 16.413 0 0 0-11.507 4.7c-12.672 12.434-19.734 24.284-24.043 30.573a12.271 12.271 0 0 0-2.225 7.932c1.065 18.626 5.082 40.009 7.062 49.73a2.223 2.223 0 0 0-.335.534c-2.805 8.9-.632 10.547 1.4 22.061.952 5.392 2.063 6.826 2.975 6.826 1.036 0 1.815-1.847 1.815-1.847.817 3.161 1.671 4.119 2.41 4.119 1.134 0 1.988-2.281 1.988-2.281 1.1 2.191 1.925 2.93 2.528 2.93 1.256 0 1.587-3.169 1.587-3.169.234 1.045.846 1.7 1.478 1.7.8 0 1.625-1.039 1.76-3.631.193-4.211-1.593-12.146-1.6-12.146a3.993 3.993 0 0 0 2.3 1.3c1.157 0 1.535-1.72.987-5.074-.871-4.884-5.319-10.4-5.564-10.688-.193-27.239-1.74-44.119-1.74-44.119 14.367-9.289 23.992-15.919 29.891-21.53a16.227 16.227 0 0 0 1.7-21.481 2.376 2.376 0 0 0-.34-.387 15.787 15.787 0 0 0-12.529-6.053z" transform="translate(-830.665 -1305.941)" style="fill:#ffab6d;fill-rule:evenodd"/>
                                                                                                        <g id="Group_145982" data-name="Group 145982">
                                                                                                            <g id="Group_145981" data-name="Group 145981" style="clip-path:url(#clip-path-2)">
                                                                                                                <path id="Path_153" data-name="Path 153" d="m927.958 1720.615-.638.1c.737 3.478 1.567 6.667 1.567 6.714l.641-.2c0-.047-.883-3.186-1.57-6.618z" transform="translate(-866.706 -1518.883)" style="fill-rule:evenodd"/>
                                                                                                                <g id="Group_145980" data-name="Group 145980">
                                                                                                                    <g id="Group_145979" data-name="Group 145979" style="clip-path:url(#clip-path-2)">
                                                                                                                        <path id="Path_154" data-name="Path 154" d="m915.892 1717.481-.62.1c.717 3.954 1.767 8 1.818 8l.574-.146c0-.05-1.053-4.05-1.772-7.955z" transform="translate(-858.895 -1516.851)" style="fill-rule:evenodd"/>
                                                                                                                        <g id="Group_145978" data-name="Group 145978">
                                                                                                                            <g id="Group_145977" data-name="Group 145977" style="clip-path:url(#clip-path-2)">
                                                                                                                                <path id="Path_155" data-name="Path 155" d="m903.889 1717.472-.665.141c.717 3.2 1.539 6.078 1.539 6.124l.669-.189c0-.045-.825-2.872-1.543-6.076z" transform="translate(-851.084 -1516.845)" style="fill-rule:evenodd"/>
                                                                                                                                <g id="Group_145976" data-name="Group 145976">
                                                                                                                                    <g id="Group_145975" data-name="Group 145975" style="clip-path:url(#clip-path-2)">
                                                                                                                                        <path id="Path_156" data-name="Path 156" d="m934.7 1689.709-.579.147c.354 1.38.708 3.306.708 3.353l.579-.147c0-.05-.354-1.971-.708-3.353z" transform="translate(-871.116 -1498.846)" style="fill-rule:evenodd"/>
                                                                                                                                        <g id="Group_145974" data-name="Group 145974">
                                                                                                                                            <g id="Group_145973" data-name="Group 145973" style="clip-path:url(#clip-path-2)">
                                                                                                                                                <path id="Path_157" data-name="Path 157" d="M892.75 1447.166c-1.983 2.713-3.146 4.554-3.146 4.554s8.626 15.786 23.26 22.709c0 0 2.276-1.4 5.474-3.724-15.6-7.846-23.018-18.939-25.588-23.539z" transform="translate(-842.254 -1341.602)" style="fill:#f8c936;fill-rule:evenodd"/>
                                                                                                                                                <g id="Group_145972" data-name="Group 145972">
                                                                                                                                                    <g id="Group_145971" data-name="Group 145971" style="clip-path:url(#clip-path-2)">
                                                                                                                                                        <path id="Path_158" data-name="Path 158" d="M928.624 1385.884c-12.334 0-24.524 14.042-30.123 21.491 2.57 4.585 9.981 15.64 25.579 23.458 11-8.109 33.188-27.608 14.2-41.655a15.958 15.958 0 0 0-9.655-3.294z" transform="translate(-848.022 -1301.872)" style="fill:#006837;fill-rule:evenodd"/>
                                                                                                                                                        <g id="Group_145970" data-name="Group 145970">
                                                                                                                                                            <g id="Group_145969" data-name="Group 145969" style="clip-path:url(#clip-path-2)">
                                                                                                                                                                <path id="Path_159" data-name="Path 159" d="m1077.645 1763.58-1.313 1.877c-.194 11.13-1.749 21.631-2.865 30.542 0 0 1.893-.095 3.642-.193s3.793-.336 3.793-.336a89.254 89.254 0 0 0 0-13.248 96.823 96.823 0 0 0-3.257-18.641z" transform="translate(-961.455 -1546.737)" style="fill:#07242d;fill-rule:evenodd"/>
                                                                                                                                                                <g id="Group_145968" data-name="Group 145968">
                                                                                                                                                                    <g id="Group_145967" data-name="Group 145967" style="clip-path:url(#clip-path-2)">
                                                                                                                                                                        <path id="Path_160" data-name="Path 160" d="M998.017 1186.3a22.474 22.474 0 0 0-2.768.17c-11.732 1.407-20.117 11.626-18.761 22.816.1.676.194 1.355.339 2.034a.514.514 0 0 1 .049.24l3.249 13.031c2.765 9.829 6.687 15.253 12.7 17.727a20.106 20.106 0 0 0 6.945 1.272 19.277 19.277 0 0 0 2.458-.159c9.551-1.164 16.629-8.817 16.921-17.727v-4.068a7.111 7.111 0 0 0 2.953-4.02c.926-3.292-.434-6.586-3.006-7.607v-3.823a14.568 14.568 0 0 0-.142-2.034c-1.25-10.3-10.349-17.851-20.939-17.851z" transform="translate(-898.488 -1172.477)" style="fill:#ffab6d;fill-rule:evenodd"/>
                                                                                                                                                                        <g id="Group_145966" data-name="Group 145966">
                                                                                                                                                                            <g id="Group_145965" data-name="Group 145965" style="clip-path:url(#clip-path-2)">
                                                                                                                                                                                <path id="Path_161" data-name="Path 161" d="m1025.746 1249.15-7.8 1.861.486 2 7.8-1.858-.489-2.008z" transform="translate(-925.46 -1213.225)" style="fill-rule:evenodd"/>
                                                                                                                                                                                <g id="Group_145964" data-name="Group 145964">
                                                                                                                                                                                    <g id="Group_145963" data-name="Group 145963" style="clip-path:url(#clip-path-2)">
                                                                                                                                                                                        <path id="Path_162" data-name="Path 162" d="m1072.658 1248.1-.239 2.033 4.871.727.288-1.987-4.919-.774z" transform="translate(-960.775 -1212.546)" style="fill-rule:evenodd"/>
                                                                                                                                                                                        <g id="Group_145962" data-name="Group 145962">
                                                                                                                                                                                            <g id="Group_145961" data-name="Group 145961" style="clip-path:url(#clip-path-2)">
                                                                                                                                                                                                <path id="Path_163" data-name="Path 163" d="M1038.9 1305.2a11.04 11.04 0 0 0 .729 2.094 6.942 6.942 0 0 0 6.2 4.485c.145 0 .24.05.388.05 5.139-.195 6.5-5.9 6.5-5.9l-13.814-.73z" transform="translate(-939.045 -1249.565)" style="fill:#e8e3d9;fill-rule:evenodd"/>
                                                                                                                                                                                                <g id="Group_145960" data-name="Group 145960">
                                                                                                                                                                                                    <g id="Group_145959" data-name="Group 145959" style="clip-path:url(#clip-path-2)">
                                                                                                                                                                                                        <path id="Path_164" data-name="Path 164" d="M996.261 1182.107a35.033 35.033 0 0 0-4.289.277c-32.329 3.967-17.275 37.4-12.593 45.778 0 0 4.44-4.066-.481-10.648 0 0 10.083-4.6 6.029-14.613h.132c5 0 6.141-2.613 6.141-2.613a17.708 17.708 0 0 0 4.172.514 13.808 13.808 0 0 0 8.856-2.933 8.138 8.138 0 0 0 3.308.762 4.481 4.481 0 0 0 2.194-.47v.046a10.37 10.37 0 0 0 2.991 4.016 10.051 10.051 0 0 0 3.279 8.324s1.307-8.665-1.589-16.452c-2.36-6.28-7.428-11.987-18.149-11.987z" transform="translate(-895.53 -1169.761)" style="fill-rule:evenodd"/>
                                                                                                                                                                                                        <path id="Path_165" data-name="Path 165" d="M754.966 1579.574h203.023V1147H754.966v432.574z" transform="translate(-754.966 -1147)" style="fill:none"/>
                                                                                                                                                                                                    </g>
                                                                                                                                                                                                </g>
                                                                                                                                                                                            </g>
                                                                                                                                                                                        </g>
                                                                                                                                                                                    </g>
                                                                                                                                                                                </g>
                                                                                                                                                                            </g>
                                                                                                                                                                        </g>
                                                                                                                                                                    </g>
                                                                                                                                                                </g>
                                                                                                                                                            </g>
                                                                                                                                                        </g>
                                                                                                                                                    </g>
                                                                                                                                                </g>
                                                                                                                                            </g>
                                                                                                                                        </g>
                                                                                                                                    </g>
                                                                                                                                </g>
                                                                                                                            </g>
                                                                                                                        </g>
                                                                                                                    </g>
                                                                                                                </g>
                                                                                                            </g>
                                                                                                        </g>
                                                                                                    </g>
                                                                                                </g>
                                                                                            </g>
                                                                                        </g>
                                                                                    </g>
                                                                                </g>
                                                                            </g>
                                                                        </g>
                                                                    </g>
                                                                </g>
                                                            </g>
                                                        </g>
                                                    </g>
                                                </g>
                                            </g>
                                        </g>
                                    </g>
                                </g>
                            </g>
                        </g>
                    </g>
                </g>
                <g id="Group_146005" data-name="Group 146005" transform="translate(91.889 35.267)">
                    <path id="Path_187" data-name="Path 187" d="m1024.524 1248.391-8.278 1.976.516 2.128 8.281-1.973-.519-2.131z" transform="translate(-1016.247 -1248)" style="fill-rule:evenodd"/>
                    <path id="Path_188" data-name="Path 188" d="m1074.317 1247.279-.254 2.158 5.17.772.305-2.109-5.221-.821z" transform="translate(-1053.73 -1247.279)" style="fill-rule:evenodd"/>
                    <path id="Path_189" data-name="Path 189" d="M1028.25 1266.878a.937.937 0 0 0-.16.012 1.575 1.575 0 0 0-1.047 1.9 1.557 1.557 0 0 0 1.429 1.41 1.471 1.471 0 0 0 .163-.009 1.731 1.731 0 0 0-.385-3.309z" transform="translate(-1023.229 -1259.985)" style="fill-rule:evenodd"/>
                    <path id="Path_190" data-name="Path 190" d="M1076.5 1263.542a1.162 1.162 0 0 0-.142.009c-.651.1-1.1.962-.947 1.873a1.569 1.569 0 0 0 1.306 1.439.791.791 0 0 0 .187-.025c.647-.1 1.093-.962.947-1.87a1.564 1.564 0 0 0-1.351-1.427z" transform="translate(-1054.588 -1257.823)" style="fill-rule:evenodd"/>
                </g>
                <g id="Group_146006" data-name="Group 146006" transform="translate(79.271 11.444)">
                    <path id="Path_191" data-name="Path 191" d="M1006.03 1179.539a24.84 24.84 0 0 0-4.656.458c-19.837 3.716-21.006 23.546-21.006 23.546s4.974-15.661 21.868-18.358a32.052 32.052 0 0 1 5.043-.419c12.905 0 17.228 8.911 17.228 8.911s-4.141-14.138-18.478-14.138z" transform="translate(-980.369 -1179.539)" style="fill:#f8c936;fill-rule:evenodd"/>
                </g>
            </g>
            <path id="Path_192" data-name="Path 192" d="M1070.206 1283.735a54.044 54.044 0 0 0 7.253.108" transform="translate(-204.375 -88.647)" style="stroke:#2c8c0e;stroke-width:2px;stroke-miterlimit:10;fill:none"/>
            <path id="Path_193" data-name="Path 193" d="M1070.206 1291.491a54.085 54.085 0 0 0 7.253.109" transform="translate(-204.375 -93.675)" style="stroke:#2c8c0e;stroke-width:2px;stroke-miterlimit:10;fill:none"/>
            <path id="Path_194" data-name="Path 194" d="M1015.919 1283.735a54.044 54.044 0 0 0 7.253.108" transform="translate(-169.18 -88.647)" style="stroke:#2c8c0e;stroke-width:2px;stroke-miterlimit:10;fill:none"/>
            <path id="Path_195" data-name="Path 195" d="M1015.919 1291.491a54.084 54.084 0 0 0 7.253.109" transform="translate(-169.18 -93.675)" style="stroke:#2c8c0e;stroke-width:2px;stroke-miterlimit:10;fill:none"/>
            <g id="Group_146008" data-name="Group 146008" transform="translate(821.083 1223.717)">
                <path id="Path_196" data-name="Path 196" d="M961.307 1365.139c-2.451 0-17.824.865-18.341 22.568v55.635h1.941v-7.587h2.386v7.587h1.943v-7.587h2.128v7.587h1.943v-7.587h2.315v7.587h1.943v-7.587h2.221v7.587h1.943v-9.179h-.093v-69.017s-.115-.006-.328-.006z" transform="translate(-942.966 -1365.139)" style="fill:#07242d;fill-rule:evenodd"/>
                <path id="Path_197" data-name="Path 197" d="M942.966 1520.862h18.762v11.238h-18.762v-11.239z" transform="translate(-942.966 -1466.096)" style="fill:#f9d93d;fill-rule:evenodd"/>
                <path id="Path_198" data-name="Path 198" d="M942.966 1460.343h18.762v11h-18.762v-11z" transform="translate(-942.966 -1426.861)" style="fill:#f9d93d;fill-rule:evenodd"/>
                <path id="Path_199" data-name="Path 199" d="M944.781 1399.137a33.651 33.651 0 0 0-1.815 10.693v.546h18.566v-11.239z" transform="translate(-942.966 -1387.18)" style="fill:#f9d93d;fill-rule:evenodd"/>
            </g>
            <g id="Group_146009" data-name="Group 146009" transform="translate(871.484 1223.903)">
                <path id="Path_200" data-name="Path 200" d="M1086.556 1365.668c-.149 0-.23.006-.23.006v69.017h-.048v9.179h1.356v-7.587h1.536v7.587h1.358v-7.587h1.617v7.587h1.357v-7.587h1.487v7.587h1.357v-7.587h1.667v7.587h1.356v-55.635c-.36-21.7-11.1-22.567-12.814-22.567z" transform="translate(-1086.278 -1365.668)" style="fill:#07242d;fill-rule:evenodd"/>
                <path id="Path_201" data-name="Path 201" d="M1086.278 1521.391h13.092v11.239h-13.092v-11.239z" transform="translate(-1086.278 -1466.625)" style="fill:#f9d93d;fill-rule:evenodd"/>
                <path id="Path_202" data-name="Path 202" d="M1086.278 1460.871h13.092v11h-13.092v-11z" transform="translate(-1086.278 -1427.39)" style="fill:#f9d93d;fill-rule:evenodd"/>
                <path id="Path_203" data-name="Path 203" d="M1086.668 1399.665v11.235h12.955v-.546a46.032 46.032 0 0 0-1.267-10.693z" transform="translate(-1086.531 -1387.709)" style="fill:#f9d93d;fill-rule:evenodd"/>
            </g>
        </g>
        <path id="Path_297" data-name="Path 297" d="M856.975 441.3c-1.9-.264-4.158-1.439-6.657-1.771.474 1.23-.47 3.155.662 3.556a33.457 33.457 0 0 0 6 1.3z" transform="translate(-773.106 -192.792)" style="fill:#ffab6d"/>
        <path id="Path_302" data-name="Path 302" d="M861.092 440.936c-3.067-.211-6.729-1.146-10.774-1.411.767.98-.761 2.513 1.071 2.833 2.235.39 6.582.857 9.7 1.036z" transform="translate(-799.397 -205.453)" style="fill:#ffd600"/>
        <path id="Path_298" data-name="Path 298" d="M6.657 1.771C4.762 1.507 2.5.332 0 0c.474 1.23-.47 3.155.662 3.556a33.459 33.459 0 0 0 6 1.3z" transform="rotate(74 -109.004 178.489)" style="fill:#ffab6d"/>
        <path id="Path_303" data-name="Path 303" d="M6.657 1.771C4.762 1.507 2.5.332 0 0c.474 1.23-.47 3.155.662 3.556a33.459 33.459 0 0 0 6 1.3z" transform="rotate(74 -101.038 158.014)" style="fill:#c1272d"/>
        <path id="Path_299" data-name="Path 299" d="M12.148 1.086C8.69.924 4.561.2 0 0c.865.754-.858 1.935 1.207 2.182 2.52.3 7.422.66 10.941.8z" transform="rotate(74 -111.286 165.492)" style="fill:#6842ef"/>
        <path id="Path_301" data-name="Path 301" d="M11.251 1.048C8.048.892 4.224.2 0 0c.8.728-.794 1.868 1.118 2.105 2.334.29 6.873.636 10.132.77z" transform="rotate(74 -102.074 145.956)" style="fill:#ffd600"/>
        <path id="Path_300" data-name="Path 300" d="M6.657 1.771C4.762 1.507 2.5.332 0 0c.474 1.23-.47 3.155.662 3.556a33.46 33.46 0 0 0 6 1.3z" transform="rotate(-35.02 433.828 40.91)" style="fill:#c1272d"/>
        <path id="Path_304" data-name="Path 304" d="M6.657 1.771C4.762 1.507 2.5.332 0 0c.474 1.23-.47 3.155.662 3.556a33.46 33.46 0 0 0 6 1.3z" transform="rotate(-35.02 370.796 35.389)" style="fill:#6842ef"/>
        <path id="Rectangle_153863" data-name="Rectangle 153863" transform="rotate(21.389 -489.708 818.077)" style="fill:#3d6ef9" d="M0 0h47.64v47.64H0z"/>
        <path id="Path_305" data-name="Path 305" d="m-1143.95 4595.7 2-2.2s-9.4-2-14.8 2.2 12.8 0 12.8 0z" transform="translate(1405 -4337)" style="fill:#ffab6d"/>
    </g>
</svg>
